<?xml version="1.0" encoding="UTF-8"?>
<svg width="872px" height="1002px" viewBox="0 0 872 1002" version="1.1" xmlns="http://www.w3.org/2000/svg" xmlns:xlink="http://www.w3.org/1999/xlink">
    <!-- Generator: Sketch 47.1 (45422) - http://www.bohemiancoding.com/sketch -->
    <title>Untitled</title>
    <desc>Created with Sketch.</desc>
    <defs></defs>
    <g id="Page-1" stroke="none" stroke-width="1" fill="none" fill-rule="evenodd">
        <g id="NodeSchool-Logo-ES" fill-rule="nonzero">
            <polygon id="Shape" fill="#FAFFFD" points="840.7 734.5 436 968 31.8 734.5 31.1 267.5 436 34 840.4 267.5"></polygon>
            <g id="Group" transform="translate(195.000000, 198.000000)">
                <circle id="Oval" fill="#EBF0FF" cx="241" cy="240.9" r="240.1"></circle>
                <circle id="Oval" fill="#C4D4FF" cx="241" cy="240.9" r="160.5"></circle>
                <circle id="Oval" fill="#9DB7FF" cx="241" cy="240.9" r="100.1"></circle>
                <circle id="Oval" fill="#4F7EFF" cx="241" cy="240.9" r="61"></circle>
            </g>
            <path d="M482.3,725 L16.5,725 C14.8,725 13.5,723.7 13.5,722 L13.5,426 C13.5,424.8 14.2,423.7 15.4,423.2 C33.2,416 122.5,380.3 131.7,380.3 C142.7,380.3 462.2,452.3 498.6,460.5 C500,460.8 501,462.1 500.9,463.6 L485.4,722.1 C485.2,723.8 483.9,725 482.3,725 Z M19.5,719 L479.5,719 L494.7,465.8 C394.5,443.2 141.2,386.5 131.6,386.3 C125.5,386.3 60.4,411.6 19.4,428 L19.4,719 L19.5,719 Z" id="Shape" fill="#2962FF"></path>
            <g id="Group" transform="translate(321.000000, 319.000000)">
                <g id="Shape">
                    <polygon fill="#FAFFFD" points="535 76.3 441.3 8.8 403.2 13.7 359.2 3.7 3.6 251.7 3.6 403 535 403"></polygon>
                    <path d="M535,406 L3.6,406 C1.9,406 0.6,404.7 0.6,403 L0.6,251.7 C0.6,250.7 1.1,249.8 1.9,249.2 L357.6,1.2 C358.3,0.7 359.2,0.5 360,0.7 L403.4,10.6 L441,5.8 C441.8,5.7 442.5,5.9 443.1,6.3 L536.8,73.8 C537.6,74.4 538,75.3 538,76.2 L538,403 C538,404.7 536.7,406 535,406 Z M6.6,400 L532,400 L532,77.9 L440.5,11.9 L403.5,16.6 C403.2,16.6 402.8,16.6 402.5,16.5 L359.9,6.8 L6.6,253.3 L6.6,400 Z" fill="#2962FF"></path>
                </g>
                <path d="M356.8,53 L260.5,53 C258.8,53 257.5,51.7 257.5,50 C257.5,48.3 258.8,47 260.5,47 L356.8,47 C358.5,47 359.8,48.3 359.8,50 C359.8,51.7 358.5,53 356.8,53 Z" id="Shape" fill="#2962FF"></path>
                <path d="M305.3,71 L241.2,71 C239.5,71 238.2,69.7 238.2,68 C238.2,66.3 239.5,65 241.2,65 L305.3,65 C307,65 308.3,66.3 308.3,68 C308.3,69.7 307,71 305.3,71 Z" id="Shape" fill="#2962FF"></path>
            </g>
            <g id="Group" transform="translate(16.000000, 719.000000)" fill="#2962FF">
                <polygon id="Shape" points="507.7 0 507.7 6 332.3 6 332.3 0 79.7 0 79.7 6 759.6 6 759.6 0"></polygon>
                <rect id="Rectangle-path" x="616" y="13" width="224" height="6"></rect>
                <rect id="Rectangle-path" x="0.5" y="13" width="224" height="6"></rect>
            </g>
            <g id="Group" transform="translate(64.000000, 405.000000)">
                <g transform="translate(184.000000, 45.000000)">
                    <g>
                        <rect id="Rectangle-path" fill="#FFFFFF" x="3.3" y="3.1" width="369.4" height="268"></rect>
                        <path d="M372.7,274.1 L3.3,274.1 C1.6,274.1 0.3,272.8 0.3,271.1 L0.3,3.1 C0.3,1.4 1.6,0.1 3.3,0.1 L372.7,0.1 C374.4,0.1 375.7,1.4 375.7,3.1 L375.7,271.1 C375.7,272.8 374.3,274.1 372.7,274.1 Z M6.3,268.1 L369.7,268.1 L369.7,6.1 L6.3,6.1 L6.3,268.1 Z" id="Shape" fill="#2962FF"></path>
                    </g>
                    <g transform="translate(0.000000, 170.000000)">
                        <rect id="Rectangle-path" fill="#FFFFFF" x="3.3" y="3.3" width="369.4" height="15.1"></rect>
                        <path d="M372.7,21.3 L3.3,21.3 C1.6,21.3 0.3,20 0.3,18.3 L0.3,3.2 C0.3,1.5 1.6,0.2 3.3,0.2 L372.7,0.2 C374.4,0.2 375.7,1.5 375.7,3.2 L375.7,18.3 C375.7,20 374.3,21.3 372.7,21.3 Z M6.3,15.3 L369.7,15.3 L369.7,6.2 L6.3,6.2 L6.3,15.3 Z" id="Shape" fill="#2962FF"></path>
                    </g>
                    <g transform="translate(97.000000, 0.000000)">
                        <rect id="Rectangle-path" fill="#FFFFFF" x="3.5" y="3.1" width="174.9" height="17.3"></rect>
                        <path d="M178.4,23.4 L3.5,23.4 C1.8,23.4 0.5,22.1 0.5,20.4 L0.5,3.1 C0.5,1.4 1.8,0.1 3.5,0.1 L178.4,0.1 C180.1,0.1 181.4,1.4 181.4,3.1 L181.4,20.4 C181.4,22.1 180.1,23.4 178.4,23.4 Z M6.5,17.4 L175.4,17.4 L175.4,6.1 L6.5,6.1 L6.5,17.4 Z" id="Shape" fill="#2962FF"></path>
                    </g>
                </g>
                <g>
                    <g transform="translate(10.000000, 21.000000)">
                        <rect id="Rectangle-path" fill="#FFFFFF" x="3.6" y="3.8" width="173.7" height="291.3"></rect>
                        <path d="M177.3,298.1 L3.6,298.1 C1.9,298.1 0.6,296.8 0.6,295.1 L0.6,3.8 C0.6,2.1 1.9,0.8 3.6,0.8 L177.3,0.8 C179,0.8 180.3,2.1 180.3,3.8 L180.3,295.1 C180.3,296.8 179,298.1 177.3,298.1 Z M6.6,292.1 L174.3,292.1 L174.3,6.8 L6.6,6.8 L6.6,292.1 Z" id="Shape" fill="#2962FF"></path>
                    </g>
                    <g transform="translate(10.000000, 210.000000)">
                        <rect id="Rectangle-path" fill="#FFFFFF" x="3.6" y="3.2" width="173.7" height="25.2"></rect>
                        <path d="M177.3,31.4 L3.6,31.4 C1.9,31.4 0.6,30.1 0.6,28.4 L0.6,3.2 C0.6,1.5 1.9,0.2 3.6,0.2 L177.3,0.2 C179,0.2 180.3,1.5 180.3,3.2 L180.3,28.4 C180.3,30.1 179,31.4 177.3,31.4 Z M6.6,25.4 L174.3,25.4 L174.3,6.2 L6.6,6.2 L6.6,25.4 Z" id="Shape" fill="#2962FF"></path>
                    </g>
                    <g id="Shape">
                        <polygon fill="#FFFFFF" points="197 48.1 3.9 48.1 100.5 3.9"></polygon>
                        <path d="M197,51.1 L3.9,51.1 C2.5,51.1 1.3,50.1 1,48.7 C0.7,47.3 1.4,45.9 2.7,45.3 L99.3,1.1 C100.1,0.7 101,0.7 101.8,1.1 L198.4,45.3 C199.7,45.9 200.4,47.3 200.1,48.7 C199.8,50.1 198.4,51.1 197,51.1 Z M17.7,45.1 L183.3,45.1 L100.5,7.2 L17.7,45.1 Z" fill="#2962FF"></path>
                    </g>
                </g>
                <g transform="translate(544.000000, 0.000000)">
                    <g transform="translate(9.000000, 21.000000)">
                        <rect id="Rectangle-path" fill="#FFFFFF" x="3.7" y="3.8" width="173.7" height="291.3"></rect>
                        <path d="M177.4,298.1 L3.7,298.1 C2,298.1 0.7,296.8 0.7,295.1 L0.7,3.8 C0.7,2.1 2,0.8 3.7,0.8 L177.4,0.8 C179.1,0.8 180.4,2.1 180.4,3.8 L180.4,295.1 C180.4,296.8 179,298.1 177.4,298.1 Z M6.7,292.1 L174.4,292.1 L174.4,6.8 L6.7,6.8 L6.7,292.1 Z" id="Shape" fill="#2962FF"></path>
                    </g>
                    <g transform="translate(9.000000, 210.000000)">
                        <rect id="Rectangle-path" fill="#FFFFFF" x="3.7" y="3.2" width="173.7" height="25.2"></rect>
                        <path d="M177.4,31.4 L3.7,31.4 C2,31.4 0.7,30.1 0.7,28.4 L0.7,3.2 C0.7,1.5 2,0.2 3.7,0.2 L177.4,0.2 C179.1,0.2 180.4,1.5 180.4,3.2 L180.4,28.4 C180.4,30.1 179,31.4 177.4,31.4 Z M6.7,25.4 L174.4,25.4 L174.4,6.2 L6.7,6.2 L6.7,25.4 Z" id="Shape" fill="#2962FF"></path>
                    </g>
                    <g id="Shape">
                        <polygon fill="#FFFFFF" points="196.1 48.1 3 48.1 99.5 3.9"></polygon>
                        <path d="M196.1,51.1 L3,51.1 C1.6,51.1 0.4,50.1 0.1,48.7 C-0.2,47.3 0.5,45.9 1.8,45.3 L98.4,1.1 C99.2,0.7 100.1,0.7 100.9,1.1 L197.5,45.3 C198.8,45.9 199.5,47.3 199.2,48.7 C198.7,50.1 197.5,51.1 196.1,51.1 Z M16.7,45.1 L182.3,45.1 L99.5,7.2 L16.7,45.1 Z" fill="#2962FF"></path>
                    </g>
                </g>
                <g transform="translate(223.000000, 240.000000)">
                    <g transform="translate(131.000000, 0.000000)">
                        <rect id="Rectangle-path" fill="#FFFFFF" x="3" y="3.9" width="30.2" height="72.2"></rect>
                        <path d="M33.1,79.1 L3,79.1 C1.3,79.1 0,77.8 0,76.1 L0,3.9 C0,2.2 1.3,0.9 3,0.9 L33.2,0.9 C34.9,0.9 36.2,2.2 36.2,3.9 L36.2,76.1 C36.1,77.8 34.8,79.1 33.1,79.1 Z M6,73.1 L30.2,73.1 L30.2,6.9 L6,6.9 L6,73.1 Z" id="Shape" fill="#2962FF"></path>
                    </g>
                    <g transform="translate(196.000000, 0.000000)">
                        <rect id="Rectangle-path" fill="#FFFFFF" x="3.3" y="3.9" width="30.2" height="72.2"></rect>
                        <path d="M33.4,79.1 L3.2,79.1 C1.5,79.1 0.2,77.8 0.2,76.1 L0.2,3.9 C0.2,2.2 1.5,0.9 3.2,0.9 L33.4,0.9 C35.1,0.9 36.4,2.2 36.4,3.9 L36.4,76.1 C36.4,77.8 35.1,79.1 33.4,79.1 Z M6.3,73.1 L30.5,73.1 L30.5,6.9 L6.3,6.9 L6.3,73.1 Z" id="Shape" fill="#2962FF"></path>
                    </g>
                    <g transform="translate(261.000000, 0.000000)">
                        <rect id="Rectangle-path" fill="#FFFFFF" x="3.6" y="3.9" width="30.2" height="72.2"></rect>
                        <path d="M33.7,79.1 L3.5,79.1 C1.8,79.1 0.5,77.8 0.5,76.1 L0.5,3.9 C0.5,2.2 1.8,0.9 3.5,0.9 L33.7,0.9 C35.4,0.9 36.7,2.2 36.7,3.9 L36.7,76.1 C36.7,77.8 35.4,79.1 33.7,79.1 Z M6.6,73.1 L30.8,73.1 L30.8,6.9 L6.6,6.9 L6.6,73.1 Z" id="Shape" fill="#2962FF"></path>
                    </g>
                    <g transform="translate(65.000000, 0.000000)">
                        <rect id="Rectangle-path" fill="#FFFFFF" x="3.7" y="3.9" width="30.2" height="72.2"></rect>
                        <path d="M33.8,79.1 L3.6,79.1 C1.9,79.1 0.6,77.8 0.6,76.1 L0.6,3.9 C0.6,2.2 1.9,0.9 3.6,0.9 L33.8,0.9 C35.5,0.9 36.8,2.2 36.8,3.9 L36.8,76.1 C36.8,77.8 35.5,79.1 33.8,79.1 Z M6.7,73.1 L30.9,73.1 L30.9,6.9 L6.7,6.9 L6.7,73.1 Z" id="Shape" fill="#2962FF"></path>
                    </g>
                    <g>
                        <rect id="Rectangle-path" fill="#FFFFFF" x="3.7" y="3.9" width="30.2" height="72.2"></rect>
                        <path d="M33.9,79.1 L3.7,79.1 C2,79.1 0.7,77.8 0.7,76.1 L0.7,3.9 C0.7,2.2 2,0.9 3.7,0.9 L33.9,0.9 C35.6,0.9 36.9,2.2 36.9,3.9 L36.9,76.1 C36.9,77.8 35.5,79.1 33.9,79.1 Z M6.7,73.1 L30.9,73.1 L30.9,6.9 L6.7,6.9 L6.7,73.1 Z" id="Shape" fill="#2962FF"></path>
                    </g>
                </g>
                <g transform="translate(82.000000, 247.000000)">
                    <rect id="Rectangle-path" fill="#FFFFFF" x="3.4" y="3.2" width="30.2" height="65.9"></rect>
                    <path d="M33.6,72.1 L3.4,72.1 C1.7,72.1 0.4,70.8 0.4,69.1 L0.4,3.2 C0.4,1.5 1.7,0.2 3.4,0.2 L33.6,0.2 C35.3,0.2 36.6,1.5 36.6,3.2 L36.6,69.1 C36.6,70.8 35.2,72.1 33.6,72.1 Z M6.4,66.1 L30.6,66.1 L30.6,6.2 L6.4,6.2 L6.4,66.1 Z" id="Shape" fill="#2962FF"></path>
                </g>
                <g transform="translate(625.000000, 247.000000)">
                    <rect id="Rectangle-path" fill="#FFFFFF" x="3.4" y="3.2" width="30.2" height="65.9"></rect>
                    <path d="M33.6,72.1 L3.4,72.1 C1.7,72.1 0.4,70.8 0.4,69.1 L0.4,3.2 C0.4,1.5 1.7,0.2 3.4,0.2 L33.6,0.2 C35.3,0.2 36.6,1.5 36.6,3.2 L36.6,69.1 C36.6,70.8 35.3,72.1 33.6,72.1 Z M6.4,66.1 L30.6,66.1 L30.6,6.2 L6.4,6.2 L6.4,66.1 Z" id="Shape" fill="#2962FF"></path>
                </g>
                <g transform="translate(194.000000, 67.000000)">
                    <g>
                        <g>
                            <g transform="translate(4.000000, 8.000000)">
                                <rect id="Rectangle-path" fill="#FFFFFF" x="3.3" y="3.7" width="15.1" height="109.7"></rect>
                                <path d="M18.3,116.4 L3.2,116.4 C1.5,116.4 0.2,115.1 0.2,113.4 L0.2,3.7 C0.2,2 1.5,0.7 3.2,0.7 L18.3,0.7 C20,0.7 21.3,2 21.3,3.7 L21.3,113.4 C21.3,115.1 20,116.4 18.3,116.4 Z M6.3,110.4 L15.4,110.4 L15.4,6.7 L6.3,6.7 L6.3,110.4 Z" id="Shape" fill="#2962FF"></path>
                            </g>
                            <g>
                                <rect id="Rectangle-path" fill="#FFFFFF" x="3" y="3.2" width="23.3" height="8.5"></rect>
                                <path d="M26.3,14.7 L3,14.7 C1.3,14.7 0,13.4 0,11.7 L0,3.2 C0,1.5 1.3,0.2 3,0.2 L26.3,0.2 C28,0.2 29.3,1.5 29.3,3.2 L29.3,11.7 C29.3,13.3 28,14.7 26.3,14.7 Z M6,8.7 L23.3,8.7 L23.3,6.2 L6,6.2 L6,8.7 Z" id="Shape" fill="#2962FF"></path>
                            </g>
                            <g transform="translate(0.000000, 118.000000)">
                                <rect id="Rectangle-path" fill="#FFFFFF" x="3" y="3.4" width="23.3" height="8.5"></rect>
                                <path d="M26.3,14.9 L3,14.9 C1.3,14.9 0,13.6 0,11.9 L0,3.4 C0,1.7 1.3,0.4 3,0.4 L26.3,0.4 C28,0.4 29.3,1.7 29.3,3.4 L29.3,11.9 C29.3,13.6 28,14.9 26.3,14.9 Z M6,8.9 L23.3,8.9 L23.3,6.4 L6,6.4 L6,8.9 Z" id="Shape" fill="#2962FF"></path>
                            </g>
                        </g>
                        <g transform="translate(65.000000, 0.000000)">
                            <g transform="translate(4.000000, 8.000000)">
                                <rect id="Rectangle-path" fill="#FFFFFF" x="3.6" y="3.7" width="15.1" height="109.7"></rect>
                                <path d="M18.6,116.4 L3.5,116.4 C1.8,116.4 0.5,115.1 0.5,113.4 L0.5,3.7 C0.5,2 1.8,0.7 3.5,0.7 L18.6,0.7 C20.3,0.7 21.6,2 21.6,3.7 L21.6,113.4 C21.6,115.1 20.3,116.4 18.6,116.4 Z M6.6,110.4 L15.7,110.4 L15.7,6.7 L6.6,6.7 L6.6,110.4 Z" id="Shape" fill="#2962FF"></path>
                            </g>
                            <g>
                                <rect id="Rectangle-path" fill="#FFFFFF" x="3.5" y="3.2" width="23.3" height="8.5"></rect>
                                <path d="M26.8,14.7 L3.5,14.7 C1.8,14.7 0.5,13.4 0.5,11.7 L0.5,3.2 C0.5,1.5 1.8,0.2 3.5,0.2 L26.8,0.2 C28.5,0.2 29.8,1.5 29.8,3.2 L29.8,11.7 C29.8,13.3 28.4,14.7 26.8,14.7 Z M6.5,8.7 L23.8,8.7 L23.8,6.2 L6.5,6.2 L6.5,8.7 Z" id="Shape" fill="#2962FF"></path>
                            </g>
                            <g transform="translate(0.000000, 118.000000)">
                                <rect id="Rectangle-path" fill="#FFFFFF" x="3.5" y="3.4" width="23.3" height="8.5"></rect>
                                <path d="M26.8,14.9 L3.5,14.9 C1.8,14.9 0.5,13.6 0.5,11.9 L0.5,3.4 C0.5,1.7 1.8,0.4 3.5,0.4 L26.8,0.4 C28.5,0.4 29.8,1.7 29.8,3.4 L29.8,11.9 C29.8,13.6 28.4,14.9 26.8,14.9 Z M6.5,8.9 L23.8,8.9 L23.8,6.4 L6.5,6.4 L6.5,8.9 Z" id="Shape" fill="#2962FF"></path>
                            </g>
                        </g>
                        <g transform="translate(130.000000, 0.000000)">
                            <g transform="translate(4.000000, 8.000000)">
                                <rect id="Rectangle-path" fill="#FFFFFF" x="3.9" y="3.7" width="15.1" height="109.7"></rect>
                                <path d="M18.9,116.4 L3.8,116.4 C2.1,116.4 0.8,115.1 0.8,113.4 L0.8,3.7 C0.8,2 2.1,0.7 3.8,0.7 L18.9,0.7 C20.6,0.7 21.9,2 21.9,3.7 L21.9,113.4 C21.9,115.1 20.6,116.4 18.9,116.4 Z M6.9,110.4 L16,110.4 L16,6.7 L6.9,6.7 L6.9,110.4 Z" id="Shape" fill="#2962FF"></path>
                            </g>
                            <g>
                                <rect id="Rectangle-path" fill="#FFFFFF" x="3.8" y="3.2" width="23.3" height="8.5"></rect>
                                <path d="M27.1,14.7 L3.8,14.7 C2.1,14.7 0.8,13.4 0.8,11.7 L0.8,3.2 C0.8,1.5 2.1,0.2 3.8,0.2 L27.1,0.2 C28.8,0.2 30.1,1.5 30.1,3.2 L30.1,11.7 C30.1,13.3 28.7,14.7 27.1,14.7 Z M6.8,8.7 L24.1,8.7 L24.1,6.2 L6.8,6.2 L6.8,8.7 Z" id="Shape" fill="#2962FF"></path>
                            </g>
                            <g transform="translate(0.000000, 118.000000)">
                                <rect id="Rectangle-path" fill="#FFFFFF" x="3.8" y="3.4" width="23.3" height="8.5"></rect>
                                <path d="M27.1,14.9 L3.8,14.9 C2.1,14.9 0.8,13.6 0.8,11.9 L0.8,3.4 C0.8,1.7 2.1,0.4 3.8,0.4 L27.1,0.4 C28.8,0.4 30.1,1.7 30.1,3.4 L30.1,11.9 C30.1,13.6 28.7,14.9 27.1,14.9 Z M6.8,8.9 L24.1,8.9 L24.1,6.4 L6.8,6.4 L6.8,8.9 Z" id="Shape" fill="#2962FF"></path>
                            </g>
                        </g>
                        <g transform="translate(196.000000, 0.000000)">
                            <g transform="translate(4.000000, 8.000000)">
                                <rect id="Rectangle-path" fill="#FFFFFF" x="3.2" y="3.7" width="15.1" height="109.7"></rect>
                                <path d="M18.2,116.4 L3.1,116.4 C1.4,116.4 0.1,115.1 0.1,113.4 L0.1,3.7 C0.1,2 1.4,0.7 3.1,0.7 L18.2,0.7 C19.9,0.7 21.2,2 21.2,3.7 L21.2,113.4 C21.2,115.1 19.9,116.4 18.2,116.4 Z M6.2,110.4 L15.3,110.4 L15.3,6.7 L6.2,6.7 L6.2,110.4 Z" id="Shape" fill="#2962FF"></path>
                            </g>
                            <g>
                                <rect id="Rectangle-path" fill="#FFFFFF" x="3.1" y="3.2" width="23.3" height="8.5"></rect>
                                <path d="M26.4,14.7 L3.1,14.7 C1.4,14.7 0.1,13.4 0.1,11.7 L0.1,3.2 C0.1,1.5 1.4,0.2 3.1,0.2 L26.4,0.2 C28.1,0.2 29.4,1.5 29.4,3.2 L29.4,11.7 C29.4,13.3 28,14.7 26.4,14.7 Z M6.1,8.7 L23.4,8.7 L23.4,6.2 L6.1,6.2 L6.1,8.7 Z" id="Shape" fill="#2962FF"></path>
                            </g>
                            <g transform="translate(0.000000, 118.000000)">
                                <rect id="Rectangle-path" fill="#FFFFFF" x="3.1" y="3.4" width="23.3" height="8.5"></rect>
                                <path d="M26.4,14.9 L3.1,14.9 C1.4,14.9 0.1,13.6 0.1,11.9 L0.1,3.4 C0.1,1.7 1.4,0.4 3.1,0.4 L26.4,0.4 C28.1,0.4 29.4,1.7 29.4,3.4 L29.4,11.9 C29.4,13.6 28,14.9 26.4,14.9 Z M6.1,8.9 L23.4,8.9 L23.4,6.4 L6.1,6.4 L6.1,8.9 Z" id="Shape" fill="#2962FF"></path>
                            </g>
                        </g>
                        <g transform="translate(261.000000, 0.000000)">
                            <g transform="translate(4.000000, 8.000000)">
                                <rect id="Rectangle-path" fill="#FFFFFF" x="3.5" y="3.7" width="15.1" height="109.7"></rect>
                                <path d="M18.5,116.4 L3.4,116.4 C1.7,116.4 0.4,115.1 0.4,113.4 L0.4,3.7 C0.4,2 1.7,0.7 3.4,0.7 L18.5,0.7 C20.2,0.7 21.5,2 21.5,3.7 L21.5,113.4 C21.5,115.1 20.2,116.4 18.5,116.4 Z M6.5,110.4 L15.6,110.4 L15.6,6.7 L6.5,6.7 L6.5,110.4 Z" id="Shape" fill="#2962FF"></path>
                            </g>
                            <g>
                                <rect id="Rectangle-path" fill="#FFFFFF" x="3.4" y="3.2" width="23.3" height="8.5"></rect>
                                <path d="M26.7,14.7 L3.4,14.7 C1.7,14.7 0.4,13.4 0.4,11.7 L0.4,3.2 C0.4,1.5 1.7,0.2 3.4,0.2 L26.7,0.2 C28.4,0.2 29.7,1.5 29.7,3.2 L29.7,11.7 C29.7,13.3 28.3,14.7 26.7,14.7 Z M6.4,8.7 L23.7,8.7 L23.7,6.2 L6.4,6.2 L6.4,8.7 Z" id="Shape" fill="#2962FF"></path>
                            </g>
                            <g transform="translate(0.000000, 118.000000)">
                                <rect id="Rectangle-path" fill="#FFFFFF" x="3.4" y="3.4" width="23.3" height="8.5"></rect>
                                <path d="M26.7,14.9 L3.4,14.9 C1.7,14.9 0.4,13.6 0.4,11.9 L0.4,3.4 C0.4,1.7 1.7,0.4 3.4,0.4 L26.7,0.4 C28.4,0.4 29.7,1.7 29.7,3.4 L29.7,11.9 C29.7,13.6 28.3,14.9 26.7,14.9 Z M6.4,8.9 L23.7,8.9 L23.7,6.4 L6.4,6.4 L6.4,8.9 Z" id="Shape" fill="#2962FF"></path>
                            </g>
                        </g>
                        <g transform="translate(326.000000, 0.000000)">
                            <g transform="translate(4.000000, 8.000000)">
                                <rect id="Rectangle-path" fill="#FFFFFF" x="3.8" y="3.7" width="15.1" height="109.7"></rect>
                                <path d="M18.8,116.4 L3.7,116.4 C2,116.4 0.7,115.1 0.7,113.4 L0.7,3.7 C0.7,2 2,0.7 3.7,0.7 L18.8,0.7 C20.5,0.7 21.8,2 21.8,3.7 L21.8,113.4 C21.8,115.1 20.5,116.4 18.8,116.4 Z M6.8,110.4 L15.9,110.4 L15.9,6.7 L6.8,6.7 L6.8,110.4 Z" id="Shape" fill="#2962FF"></path>
                            </g>
                            <g>
                                <rect id="Rectangle-path" fill="#FFFFFF" x="3.7" y="3.2" width="23.3" height="8.5"></rect>
                                <path d="M27,14.7 L3.7,14.7 C2,14.7 0.7,13.4 0.7,11.7 L0.7,3.2 C0.7,1.5 2,0.2 3.7,0.2 L27,0.2 C28.7,0.2 30,1.5 30,3.2 L30,11.7 C30,13.3 28.6,14.7 27,14.7 Z M6.7,8.7 L24,8.7 L24,6.2 L6.7,6.2 L6.7,8.7 Z" id="Shape" fill="#2962FF"></path>
                            </g>
                            <g transform="translate(0.000000, 118.000000)">
                                <rect id="Rectangle-path" fill="#FFFFFF" x="3.7" y="3.4" width="23.3" height="8.5"></rect>
                                <path d="M27,14.9 L3.7,14.9 C2,14.9 0.7,13.6 0.7,11.9 L0.7,3.4 C0.7,1.7 2,0.4 3.7,0.4 L27,0.4 C28.7,0.4 30,1.7 30,3.4 L30,11.9 C30,13.6 28.6,14.9 27,14.9 Z M6.7,8.9 L24,8.9 L24,6.4 L6.7,6.4 L6.7,8.9 Z" id="Shape" fill="#2962FF"></path>
                            </g>
                        </g>
                    </g>
                    <g transform="translate(33.000000, 66.000000)" id="Shape">
                        <g>
                            <path d="M25.7,63.9 L3,63.9 L3,15.4 C3,15.4 3,3.5 14.3,3.5 C25.7,3.5 25.6,15.4 25.6,15.4 L25.6,63.9 L25.7,63.9 Z" fill="#FFFFFF"></path>
                            <path d="M25.7,66.9 L3,66.9 C1.3,66.9 0,65.6 0,63.9 L0,15.4 C0,10.3 3,0.5 14.3,0.5 C18.4,0.5 21.8,1.8 24.3,4.3 C28.6,8.7 28.6,15.1 28.6,15.4 L28.6,63.8 C28.7,65.6 27.4,66.9 25.7,66.9 Z M6.1,60.9 L22.8,60.9 L22.8,15.4 C22.8,13.9 22.4,6.5 14.5,6.5 C6.4,6.5 6.2,14.5 6.2,15.4 L6.2,60.9 L6.1,60.9 Z" fill="#2962FF"></path>
                        </g>
                        <g transform="translate(65.000000, 0.000000)">
                            <path d="M26.1,63.9 L3.4,63.9 L3.4,15.4 C3.4,15.4 3.4,3.5 14.7,3.5 C26.1,3.5 26,15.4 26,15.4 L26,63.9 L26.1,63.9 Z" fill="#FFFFFF"></path>
                            <path d="M26.1,66.9 L3.4,66.9 C1.7,66.9 0.4,65.6 0.4,63.9 L0.4,15.4 C0.4,10.3 3.4,0.5 14.7,0.5 C18.8,0.5 22.2,1.8 24.7,4.3 C29,8.7 29,15.1 29,15.4 L29,63.8 C29.1,65.6 27.8,66.9 26.1,66.9 Z M6.4,60.9 L23.1,60.9 L23.1,15.4 C23.1,13.9 22.7,6.5 14.8,6.5 C6.7,6.5 6.5,14.5 6.5,15.4 L6.5,60.9 L6.4,60.9 Z" fill="#2962FF"></path>
                        </g>
                        <g transform="translate(130.000000, 0.000000)">
                            <path d="M26.4,63.9 L3.7,63.9 L3.7,15.4 C3.7,15.4 3.7,3.5 15,3.5 C26.4,3.5 26.3,15.4 26.3,15.4 L26.3,63.9 L26.4,63.9 Z" fill="#FFFFFF"></path>
                            <path d="M26.4,66.9 L3.7,66.9 C2,66.9 0.7,65.6 0.7,63.9 L0.7,15.4 C0.7,10.3 3.7,0.5 15,0.5 C19.1,0.5 22.5,1.8 25,4.3 C29.3,8.7 29.3,15.1 29.3,15.4 L29.3,63.8 C29.4,65.6 28.1,66.9 26.4,66.9 Z M6.7,60.9 L23.4,60.9 L23.4,15.4 C23.4,13.9 23,6.5 15.1,6.5 C7,6.5 6.8,14.5 6.8,15.4 L6.8,60.9 L6.7,60.9 Z" fill="#2962FF"></path>
                        </g>
                        <g transform="translate(196.000000, 0.000000)">
                            <path d="M25.7,63.9 L3,63.9 L3,15.4 C3,15.4 3,3.5 14.3,3.5 C25.7,3.5 25.6,15.4 25.6,15.4 L25.6,63.9 L25.7,63.9 Z" fill="#FFFFFF"></path>
                            <path d="M25.7,66.9 L3,66.9 C1.3,66.9 0,65.6 0,63.9 L0,15.4 C0,10.3 3,0.5 14.3,0.5 C18.4,0.5 21.8,1.8 24.3,4.3 C28.6,8.7 28.6,15.1 28.6,15.4 L28.6,63.8 C28.7,65.6 27.4,66.9 25.7,66.9 Z M6,60.9 L22.7,60.9 L22.7,15.4 C22.7,13.9 22.3,6.5 14.4,6.5 C6.3,6.5 6.1,14.5 6.1,15.4 L6.1,60.9 L6,60.9 Z" fill="#2962FF"></path>
                        </g>
                        <g transform="translate(261.000000, 0.000000)">
                            <path d="M26,63.9 L3.3,63.9 L3.3,15.4 C3.3,15.4 3.3,3.5 14.6,3.5 C26,3.5 25.9,15.4 25.9,15.4 L25.9,63.9 L26,63.9 Z" fill="#FFFFFF"></path>
                            <path d="M26,66.9 L3.3,66.9 C1.6,66.9 0.3,65.6 0.3,63.9 L0.3,15.4 C0.3,10.3 3.3,0.5 14.6,0.5 C18.7,0.5 22.1,1.8 24.6,4.3 C28.9,8.7 28.9,15.1 28.9,15.4 L28.9,63.8 C29,65.6 27.7,66.9 26,66.9 Z M6.3,60.9 L23,60.9 L23,15.4 C23,13.9 22.6,6.5 14.7,6.5 C6.6,6.5 6.4,14.5 6.4,15.4 L6.4,60.9 L6.3,60.9 Z" fill="#2962FF"></path>
                        </g>
                    </g>
                    <g transform="translate(33.000000, 10.000000)">
                        <g>
                            <rect id="Rectangle-path" fill="#FFFFFF" x="3.8" y="3.6" width="21.9" height="25.7"></rect>
                            <path d="M25.7,32.3 L3.8,32.3 C2.1,32.3 0.8,31 0.8,29.3 L0.8,3.6 C0.8,1.9 2.1,0.6 3.8,0.6 L25.7,0.6 C27.4,0.6 28.7,1.9 28.7,3.6 L28.7,29.3 C28.7,31 27.4,32.3 25.7,32.3 Z M6.8,26.3 L22.7,26.3 L22.7,6.6 L6.8,6.6 L6.8,26.3 Z" id="Shape" fill="#2962FF"></path>
                        </g>
                        <g transform="translate(65.000000, 0.000000)">
                            <rect id="Rectangle-path" fill="#FFFFFF" x="3.8" y="3.6" width="21.9" height="25.7"></rect>
                            <path d="M25.7,32.3 L3.8,32.3 C2.1,32.3 0.8,31 0.8,29.3 L0.8,3.6 C0.8,1.9 2.1,0.6 3.8,0.6 L25.7,0.6 C27.4,0.6 28.7,1.9 28.7,3.6 L28.7,29.3 C28.7,31 27.4,32.3 25.7,32.3 Z M6.8,26.3 L22.7,26.3 L22.7,6.6 L6.8,6.6 L6.8,26.3 Z" id="Shape" fill="#2962FF"></path>
                        </g>
                        <g transform="translate(131.000000, 0.000000)">
                            <rect id="Rectangle-path" fill="#FFFFFF" x="3" y="3.6" width="21.9" height="25.7"></rect>
                            <path d="M25,32.3 L3,32.3 C1.3,32.3 0,31 0,29.3 L0,3.6 C0,1.9 1.3,0.6 3,0.6 L25,0.6 C26.7,0.6 28,1.9 28,3.6 L28,29.3 C28,31 26.6,32.3 25,32.3 Z M6,26.3 L22,26.3 L22,6.6 L6,6.6 L6,26.3 Z" id="Shape" fill="#2962FF"></path>
                        </g>
                        <g transform="translate(196.000000, 0.000000)">
                            <rect id="Rectangle-path" fill="#FFFFFF" x="3.4" y="3.6" width="21.9" height="25.7"></rect>
                            <path d="M25.3,32.3 L3.4,32.3 C1.7,32.3 0.4,31 0.4,29.3 L0.4,3.6 C0.4,1.9 1.7,0.6 3.4,0.6 L25.3,0.6 C27,0.6 28.3,1.9 28.3,3.6 L28.3,29.3 C28.3,31 27,32.3 25.3,32.3 Z M6.4,26.3 L22.3,26.3 L22.3,6.6 L6.4,6.6 L6.4,26.3 Z" id="Shape" fill="#2962FF"></path>
                        </g>
                        <g transform="translate(261.000000, 0.000000)">
                            <rect id="Rectangle-path" fill="#FFFFFF" x="3.7" y="3.6" width="21.9" height="25.7"></rect>
                            <path d="M25.6,32.3 L3.7,32.3 C2,32.3 0.7,31 0.7,29.3 L0.7,3.6 C0.7,1.9 2,0.6 3.7,0.6 L25.6,0.6 C27.3,0.6 28.6,1.9 28.6,3.6 L28.6,29.3 C28.6,31 27.3,32.3 25.6,32.3 Z M6.7,26.3 L22.6,26.3 L22.6,6.6 L6.7,6.6 L6.7,26.3 Z" id="Shape" fill="#2962FF"></path>
                        </g>
                    </g>
                </g>
                <g transform="translate(53.000000, 67.000000)">
                    <g>
                        <g>
                            <g transform="translate(4.000000, 8.000000)">
                                <rect id="Rectangle-path" fill="#FFFFFF" x="3.2" y="3.7" width="15.1" height="109.7"></rect>
                                <path d="M18.2,116.4 L3.1,116.4 C1.4,116.4 0.1,115.1 0.1,113.4 L0.1,3.7 C0.1,2 1.4,0.7 3.1,0.7 L18.2,0.7 C19.9,0.7 21.2,2 21.2,3.7 L21.2,113.4 C21.2,115.1 19.9,116.4 18.2,116.4 Z M6.2,110.4 L15.3,110.4 L15.3,6.7 L6.2,6.7 L6.2,110.4 Z" id="Shape" fill="#2962FF"></path>
                            </g>
                            <g>
                                <rect id="Rectangle-path" fill="#FFFFFF" x="3" y="3.2" width="23.3" height="8.5"></rect>
                                <path d="M26.3,14.7 L3,14.7 C1.3,14.7 0,13.4 0,11.7 L0,3.2 C0,1.5 1.3,0.2 3,0.2 L26.3,0.2 C28,0.2 29.3,1.5 29.3,3.2 L29.3,11.7 C29.3,13.3 28,14.7 26.3,14.7 Z M6,8.7 L23.3,8.7 L23.3,6.2 L6,6.2 L6,8.7 Z" id="Shape" fill="#2962FF"></path>
                            </g>
                            <g transform="translate(0.000000, 118.000000)">
                                <rect id="Rectangle-path" fill="#FFFFFF" x="3" y="3.4" width="23.3" height="8.5"></rect>
                                <path d="M26.3,14.9 L3,14.9 C1.3,14.9 0,13.6 0,11.9 L0,3.4 C0,1.7 1.3,0.4 3,0.4 L26.3,0.4 C28,0.4 29.3,1.7 29.3,3.4 L29.3,11.9 C29.3,13.6 28,14.9 26.3,14.9 Z M6,8.9 L23.3,8.9 L23.3,6.4 L6,6.4 L6,8.9 Z" id="Shape" fill="#2962FF"></path>
                            </g>
                        </g>
                        <g transform="translate(65.000000, 0.000000)">
                            <g transform="translate(4.000000, 8.000000)">
                                <rect id="Rectangle-path" fill="#FFFFFF" x="3.7" y="3.7" width="15.1" height="109.7"></rect>
                                <path d="M18.8,116.4 L3.7,116.4 C2,116.4 0.7,115.1 0.7,113.4 L0.7,3.7 C0.7,2 2,0.7 3.7,0.7 L18.8,0.7 C20.5,0.7 21.8,2 21.8,3.7 L21.8,113.4 C21.8,115.1 20.4,116.4 18.8,116.4 Z M6.7,110.4 L15.8,110.4 L15.8,6.7 L6.7,6.7 L6.7,110.4 Z" id="Shape" fill="#2962FF"></path>
                            </g>
                            <g>
                                <rect id="Rectangle-path" fill="#FFFFFF" x="3.6" y="3.2" width="23.3" height="8.5"></rect>
                                <path d="M26.9,14.7 L3.6,14.7 C1.9,14.7 0.6,13.4 0.6,11.7 L0.6,3.2 C0.6,1.5 1.9,0.2 3.6,0.2 L26.9,0.2 C28.6,0.2 29.9,1.5 29.9,3.2 L29.9,11.7 C29.9,13.3 28.6,14.7 26.9,14.7 Z M6.6,8.7 L23.9,8.7 L23.9,6.2 L6.6,6.2 L6.6,8.7 L6.6,8.7 Z" id="Shape" fill="#2962FF"></path>
                            </g>
                            <g transform="translate(0.000000, 118.000000)">
                                <rect id="Rectangle-path" fill="#FFFFFF" x="3.6" y="3.4" width="23.3" height="8.5"></rect>
                                <path d="M26.9,14.9 L3.6,14.9 C1.9,14.9 0.6,13.6 0.6,11.9 L0.6,3.4 C0.6,1.7 1.9,0.4 3.6,0.4 L26.9,0.4 C28.6,0.4 29.9,1.7 29.9,3.4 L29.9,11.9 C29.9,13.6 28.6,14.9 26.9,14.9 Z M6.6,8.9 L23.9,8.9 L23.9,6.4 L6.6,6.4 L6.6,8.9 L6.6,8.9 Z" id="Shape" fill="#2962FF"></path>
                            </g>
                        </g>
                    </g>
                    <g transform="translate(28.000000, 82.000000)">
                        <rect id="Rectangle-path" fill="#FFFFFF" x="3.4" y="3.2" width="32.1" height="44.7"></rect>
                        <path d="M35.5,50.9 L3.4,50.9 C1.7,50.9 0.4,49.6 0.4,47.9 L0.4,3.2 C0.4,1.5 1.7,0.2 3.4,0.2 L35.5,0.2 C37.2,0.2 38.5,1.5 38.5,3.2 L38.5,47.9 C38.5,49.6 37.2,50.9 35.5,50.9 Z M6.4,44.9 L32.5,44.9 L32.5,6.2 L6.4,6.2 L6.4,44.9 Z" id="Shape" fill="#2962FF"></path>
                    </g>
                    <g transform="translate(28.000000, 10.000000)">
                        <rect id="Rectangle-path" fill="#FFFFFF" x="3.4" y="3.6" width="32.1" height="44.7"></rect>
                        <path d="M35.5,51.3 L3.4,51.3 C1.7,51.3 0.4,50 0.4,48.3 L0.4,3.6 C0.4,1.9 1.7,0.6 3.4,0.6 L35.5,0.6 C37.2,0.6 38.5,1.9 38.5,3.6 L38.5,48.3 C38.5,49.9 37.2,51.3 35.5,51.3 Z M6.4,45.3 L32.5,45.3 L32.5,6.6 L6.4,6.6 L6.4,45.3 Z" id="Shape" fill="#2962FF"></path>
                    </g>
                </g>
                <g transform="translate(596.000000, 67.000000)">
                    <g>
                        <g>
                            <g transform="translate(4.000000, 8.000000)">
                                <rect id="Rectangle-path" fill="#FFFFFF" x="3.2" y="3.7" width="15.1" height="109.7"></rect>
                                <path d="M18.3,116.4 L3.2,116.4 C1.5,116.4 0.2,115.1 0.2,113.4 L0.2,3.7 C0.2,2 1.5,0.7 3.2,0.7 L18.3,0.7 C20,0.7 21.3,2 21.3,3.7 L21.3,113.4 C21.3,115.1 19.9,116.4 18.3,116.4 Z M6.2,110.4 L15.3,110.4 L15.3,6.7 L6.2,6.7 L6.2,110.4 Z" id="Shape" fill="#2962FF"></path>
                            </g>
                            <g>
                                <rect id="Rectangle-path" fill="#FFFFFF" x="3.1" y="3.2" width="23.3" height="8.5"></rect>
                                <path d="M26.4,14.7 L3.1,14.7 C1.4,14.7 0.1,13.4 0.1,11.7 L0.1,3.2 C0.1,1.5 1.4,0.2 3.1,0.2 L26.4,0.2 C28.1,0.2 29.4,1.5 29.4,3.2 L29.4,11.7 C29.4,13.3 28.1,14.7 26.4,14.7 Z M6.1,8.7 L23.4,8.7 L23.4,6.2 L6.1,6.2 L6.1,8.7 Z" id="Shape" fill="#2962FF"></path>
                            </g>
                            <g transform="translate(0.000000, 118.000000)">
                                <rect id="Rectangle-path" fill="#FFFFFF" x="3.1" y="3.4" width="23.3" height="8.5"></rect>
                                <path d="M26.4,14.9 L3.1,14.9 C1.4,14.9 0.1,13.6 0.1,11.9 L0.1,3.4 C0.1,1.7 1.4,0.4 3.1,0.4 L26.4,0.4 C28.1,0.4 29.4,1.7 29.4,3.4 L29.4,11.9 C29.4,13.6 28.1,14.9 26.4,14.9 Z M6.1,8.9 L23.4,8.9 L23.4,6.4 L6.1,6.4 L6.1,8.9 Z" id="Shape" fill="#2962FF"></path>
                            </g>
                        </g>
                        <g transform="translate(65.000000, 0.000000)">
                            <g transform="translate(4.000000, 8.000000)">
                                <rect id="Rectangle-path" fill="#FFFFFF" x="3.8" y="3.7" width="15.1" height="109.7"></rect>
                                <path d="M18.8,116.4 L3.7,116.4 C2,116.4 0.7,115.1 0.7,113.4 L0.7,3.7 C0.7,2 2,0.7 3.7,0.7 L18.8,0.7 C20.5,0.7 21.8,2 21.8,3.7 L21.8,113.4 C21.8,115.1 20.5,116.4 18.8,116.4 Z M6.8,110.4 L15.9,110.4 L15.9,6.7 L6.8,6.7 L6.8,110.4 Z" id="Shape" fill="#2962FF"></path>
                            </g>
                            <g>
                                <rect id="Rectangle-path" fill="#FFFFFF" x="3.7" y="3.2" width="23.3" height="8.5"></rect>
                                <path d="M27,14.7 L3.7,14.7 C2,14.7 0.7,13.4 0.7,11.7 L0.7,3.2 C0.7,1.5 2,0.2 3.7,0.2 L27,0.2 C28.7,0.2 30,1.5 30,3.2 L30,11.7 C30,13.3 28.6,14.7 27,14.7 Z M6.7,8.7 L24,8.7 L24,6.2 L6.7,6.2 L6.7,8.7 Z" id="Shape" fill="#2962FF"></path>
                            </g>
                            <g transform="translate(0.000000, 118.000000)">
                                <rect id="Rectangle-path" fill="#FFFFFF" x="3.7" y="3.4" width="23.3" height="8.5"></rect>
                                <path d="M27,14.9 L3.7,14.9 C2,14.9 0.7,13.6 0.7,11.9 L0.7,3.4 C0.7,1.7 2,0.4 3.7,0.4 L27,0.4 C28.7,0.4 30,1.7 30,3.4 L30,11.9 C30,13.6 28.6,14.9 27,14.9 Z M6.7,8.9 L24,8.9 L24,6.4 L6.7,6.4 L6.7,8.9 Z" id="Shape" fill="#2962FF"></path>
                            </g>
                        </g>
                    </g>
                    <g transform="translate(28.000000, 10.000000)">
                        <rect id="Rectangle-path" fill="#FFFFFF" x="3.5" y="3.6" width="32.1" height="44.7"></rect>
                        <path d="M35.6,51.3 L3.5,51.3 C1.8,51.3 0.5,50 0.5,48.3 L0.5,3.6 C0.5,1.9 1.8,0.6 3.5,0.6 L35.6,0.6 C37.3,0.6 38.6,1.9 38.6,3.6 L38.6,48.3 C38.6,49.9 37.2,51.3 35.6,51.3 Z M6.5,45.3 L32.6,45.3 L32.6,6.6 L6.5,6.6 L6.5,45.3 Z" id="Shape" fill="#2962FF"></path>
                    </g>
                    <g transform="translate(28.000000, 82.000000)">
                        <rect id="Rectangle-path" fill="#FFFFFF" x="3.5" y="3.2" width="32.1" height="44.7"></rect>
                        <path d="M35.6,50.9 L3.5,50.9 C1.8,50.9 0.5,49.6 0.5,47.9 L0.5,3.2 C0.5,1.5 1.8,0.2 3.5,0.2 L35.6,0.2 C37.3,0.2 38.6,1.5 38.6,3.2 L38.6,47.9 C38.6,49.6 37.2,50.9 35.6,50.9 Z M6.5,44.9 L32.6,44.9 L32.6,6.2 L6.5,6.2 L6.5,44.9 Z" id="Shape" fill="#2962FF"></path>
                    </g>
                </g>
                <g transform="translate(184.000000, 21.000000)">
                    <g>
                        <rect id="Rectangle-path" fill="#FFFFFF" x="3.3" y="3.8" width="369.4" height="23.3"></rect>
                        <path d="M372.7,30.1 L3.3,30.1 C1.6,30.1 0.3,28.8 0.3,27.1 L0.3,3.8 C0.3,2.1 1.6,0.8 3.3,0.8 L372.7,0.8 C374.4,0.8 375.7,2.1 375.7,3.8 L375.7,27.1 C375.7,28.7 374.3,30.1 372.7,30.1 Z M6.3,24.1 L369.7,24.1 L369.7,6.8 L6.3,6.8 L6.3,24.1 Z" id="Shape" fill="#2962FF"></path>
                    </g>
                    <g transform="translate(30.000000, 0.000000)" id="Shape">
                        <g>
                            <path d="M3.8,3.8 L3.8,27.1" fill="#FFFFFF"></path>
                            <path d="M3.8,30.1 C2.1,30.1 0.8,28.8 0.8,27.1 L0.8,3.8 C0.8,2.1 2.1,0.8 3.8,0.8 C5.5,0.8 6.8,2.1 6.8,3.8 L6.8,27.1 C6.8,28.7 5.5,30.1 3.8,30.1 Z" fill="#2962FF"></path>
                        </g>
                        <g transform="translate(10.000000, 0.000000)">
                            <path d="M3.4,3.8 L3.4,27.1" fill="#FFFFFF"></path>
                            <path d="M3.4,30.1 C1.7,30.1 0.4,28.8 0.4,27.1 L0.4,3.8 C0.4,2.1 1.7,0.8 3.4,0.8 C5.1,0.8 6.4,2.1 6.4,3.8 L6.4,27.1 C6.4,28.7 5.1,30.1 3.4,30.1 Z" fill="#2962FF"></path>
                        </g>
                        <g transform="translate(20.000000, 0.000000)">
                            <path d="M3,3.8 L3,27.1" fill="#FFFFFF"></path>
                            <path d="M3,30.1 C1.3,30.1 0,28.8 0,27.1 L0,3.8 C0,2.1 1.3,0.8 3,0.8 C4.7,0.8 6,2.1 6,3.8 L6,27.1 C6,28.7 4.7,30.1 3,30.1 Z" fill="#2962FF"></path>
                        </g>
                        <g transform="translate(29.000000, 0.000000)">
                            <path d="M3.6,3.8 L3.6,27.1" fill="#FFFFFF"></path>
                            <path d="M3.6,30.1 C1.9,30.1 0.6,28.8 0.6,27.1 L0.6,3.8 C0.6,2.1 1.9,0.8 3.6,0.8 C5.3,0.8 6.6,2.1 6.6,3.8 L6.6,27.1 C6.6,28.7 5.2,30.1 3.6,30.1 Z" fill="#2962FF"></path>
                        </g>
                        <g transform="translate(39.000000, 0.000000)">
                            <path d="M3.2,3.8 L3.2,27.1" fill="#FFFFFF"></path>
                            <path d="M3.2,30.1 C1.5,30.1 0.2,28.8 0.2,27.1 L0.2,3.8 C0.2,2.1 1.5,0.8 3.2,0.8 C4.9,0.8 6.2,2.1 6.2,3.8 L6.2,27.1 C6.2,28.7 4.8,30.1 3.2,30.1 Z" fill="#2962FF"></path>
                        </g>
                    </g>
                    <g transform="translate(98.000000, 0.000000)" id="Shape">
                        <g>
                            <path d="M3.3,3.8 L3.3,27.1" fill="#FFFFFF"></path>
                            <path d="M3.3,30.1 C1.6,30.1 0.3,28.8 0.3,27.1 L0.3,3.8 C0.3,2.1 1.6,0.8 3.3,0.8 C5,0.8 6.3,2.1 6.3,3.8 L6.3,27.1 C6.3,28.7 5,30.1 3.3,30.1 Z" fill="#2962FF"></path>
                        </g>
                        <g transform="translate(9.000000, 0.000000)">
                            <path d="M3.9,3.8 L3.9,27.1" fill="#FFFFFF"></path>
                            <path d="M3.9,30.1 C2.2,30.1 0.9,28.8 0.9,27.1 L0.9,3.8 C0.9,2.1 2.2,0.8 3.9,0.8 C5.6,0.8 6.9,2.1 6.9,3.8 L6.9,27.1 C6.9,28.7 5.6,30.1 3.9,30.1 Z" fill="#2962FF"></path>
                        </g>
                        <g transform="translate(19.000000, 0.000000)">
                            <path d="M3.5,3.8 L3.5,27.1" fill="#FFFFFF"></path>
                            <path d="M3.5,30.1 C1.8,30.1 0.5,28.8 0.5,27.1 L0.5,3.8 C0.5,2.1 1.8,0.8 3.5,0.8 C5.2,0.8 6.5,2.1 6.5,3.8 L6.5,27.1 C6.5,28.7 5.2,30.1 3.5,30.1 Z" fill="#2962FF"></path>
                        </g>
                        <g transform="translate(29.000000, 0.000000)">
                            <path d="M3.1,3.8 L3.1,27.1" fill="#FFFFFF"></path>
                            <path d="M3.1,30.1 C1.4,30.1 0.1,28.8 0.1,27.1 L0.1,3.8 C0.1,2.1 1.4,0.8 3.1,0.8 C4.8,0.8 6.1,2.1 6.1,3.8 L6.1,27.1 C6.1,28.7 4.7,30.1 3.1,30.1 Z" fill="#2962FF"></path>
                        </g>
                        <g transform="translate(38.000000, 0.000000)">
                            <path d="M3.7,3.8 L3.7,27.1" fill="#FFFFFF"></path>
                            <path d="M3.7,30.1 C2,30.1 0.7,28.8 0.7,27.1 L0.7,3.8 C0.7,2.1 2,0.8 3.7,0.8 C5.4,0.8 6.7,2.1 6.7,3.8 L6.7,27.1 C6.7,28.7 5.3,30.1 3.7,30.1 Z" fill="#2962FF"></path>
                        </g>
                    </g>
                    <g transform="translate(166.000000, 0.000000)" id="Shape">
                        <g>
                            <path d="M3,3.8 L3,27.1" fill="#FFFFFF"></path>
                            <path d="M3,30.1 C1.3,30.1 0,28.8 0,27.1 L0,3.8 C0,2.1 1.3,0.8 3,0.8 C4.7,0.8 6,2.1 6,3.8 L6,27.1 C6,28.7 4.6,30.1 3,30.1 Z" fill="#2962FF"></path>
                        </g>
                        <g transform="translate(9.000000, 0.000000)">
                            <path d="M3.5,3.8 L3.5,27.1" fill="#FFFFFF"></path>
                            <path d="M3.5,30.1 C1.8,30.1 0.5,28.8 0.5,27.1 L0.5,3.8 C0.5,2.1 1.8,0.8 3.5,0.8 C5.2,0.8 6.5,2.1 6.5,3.8 L6.5,27.1 C6.5,28.7 5.2,30.1 3.5,30.1 Z" fill="#2962FF"></path>
                        </g>
                        <g transform="translate(19.000000, 0.000000)">
                            <path d="M3.1,3.8 L3.1,27.1" fill="#FFFFFF"></path>
                            <path d="M3.1,30.1 C1.4,30.1 0.1,28.8 0.1,27.1 L0.1,3.8 C0.1,2.1 1.4,0.8 3.1,0.8 C4.8,0.8 6.1,2.1 6.1,3.8 L6.1,27.1 C6.1,28.7 4.8,30.1 3.1,30.1 Z" fill="#2962FF"></path>
                        </g>
                        <g transform="translate(28.000000, 0.000000)">
                            <path d="M3.7,3.8 L3.7,27.1" fill="#FFFFFF"></path>
                            <path d="M3.7,30.1 C2,30.1 0.7,28.8 0.7,27.1 L0.7,3.8 C0.7,2.1 2,0.8 3.7,0.8 C5.4,0.8 6.7,2.1 6.7,3.8 L6.7,27.1 C6.7,28.7 5.4,30.1 3.7,30.1 Z" fill="#2962FF"></path>
                        </g>
                        <g transform="translate(38.000000, 0.000000)">
                            <path d="M3.3,3.8 L3.3,27.1" fill="#FFFFFF"></path>
                            <path d="M3.3,30.1 C1.6,30.1 0.3,28.8 0.3,27.1 L0.3,3.8 C0.3,2.1 1.6,0.8 3.3,0.8 C5,0.8 6.3,2.1 6.3,3.8 L6.3,27.1 C6.3,28.7 5,30.1 3.3,30.1 Z" fill="#2962FF"></path>
                        </g>
                    </g>
                    <g transform="translate(233.000000, 0.000000)" id="Shape">
                        <g>
                            <path d="M3.5,3.8 L3.5,27.1" fill="#FFFFFF"></path>
                            <path d="M3.5,30.1 C1.8,30.1 0.5,28.8 0.5,27.1 L0.5,3.8 C0.5,2.1 1.8,0.8 3.5,0.8 C5.2,0.8 6.5,2.1 6.5,3.8 L6.5,27.1 C6.5,28.7 5.1,30.1 3.5,30.1 Z" fill="#2962FF"></path>
                        </g>
                        <g transform="translate(10.000000, 0.000000)">
                            <path d="M3,3.8 L3,27.1" fill="#FFFFFF"></path>
                            <path d="M3,30.1 C1.3,30.1 0,28.8 0,27.1 L0,3.8 C0,2.1 1.3,0.8 3,0.8 C4.7,0.8 6,2.1 6,3.8 L6,27.1 C6,28.7 4.7,30.1 3,30.1 Z" fill="#2962FF"></path>
                        </g>
                        <g transform="translate(19.000000, 0.000000)">
                            <path d="M3.6,3.8 L3.6,27.1" fill="#FFFFFF"></path>
                            <path d="M3.6,30.1 C1.9,30.1 0.6,28.8 0.6,27.1 L0.6,3.8 C0.6,2.1 1.9,0.8 3.6,0.8 C5.3,0.8 6.6,2.1 6.6,3.8 L6.6,27.1 C6.6,28.7 5.3,30.1 3.6,30.1 Z" fill="#2962FF"></path>
                        </g>
                        <g transform="translate(29.000000, 0.000000)">
                            <path d="M3.2,3.8 L3.2,27.1" fill="#FFFFFF"></path>
                            <path d="M3.2,30.1 C1.5,30.1 0.2,28.8 0.2,27.1 L0.2,3.8 C0.2,2.1 1.5,0.8 3.2,0.8 C4.9,0.8 6.2,2.1 6.2,3.8 L6.2,27.1 C6.2,28.7 4.9,30.1 3.2,30.1 Z" fill="#2962FF"></path>
                        </g>
                        <g transform="translate(38.000000, 0.000000)">
                            <path d="M3.8,3.8 L3.8,27.1" fill="#FFFFFF"></path>
                            <path d="M3.8,30.1 C2.1,30.1 0.8,28.8 0.8,27.1 L0.8,3.8 C0.8,2.1 2.1,0.8 3.8,0.8 C5.5,0.8 6.8,2.1 6.8,3.8 L6.8,27.1 C6.8,28.7 5.5,30.1 3.8,30.1 Z" fill="#2962FF"></path>
                        </g>
                    </g>
                    <g transform="translate(300.000000, 0.000000)" id="Shape">
                        <g>
                            <path d="M3.9,3.8 L3.9,27.1" fill="#FFFFFF"></path>
                            <path d="M3.9,30.1 C2.2,30.1 0.9,28.8 0.9,27.1 L0.9,3.8 C0.9,2.1 2.2,0.8 3.9,0.8 C5.6,0.8 6.9,2.1 6.9,3.8 L6.9,27.1 C6.9,28.7 5.6,30.1 3.9,30.1 Z" fill="#2962FF"></path>
                        </g>
                        <g transform="translate(10.000000, 0.000000)">
                            <path d="M3.5,3.8 L3.5,27.1" fill="#FFFFFF"></path>
                            <path d="M3.5,30.1 C1.8,30.1 0.5,28.8 0.5,27.1 L0.5,3.8 C0.5,2.1 1.8,0.8 3.5,0.8 C5.2,0.8 6.5,2.1 6.5,3.8 L6.5,27.1 C6.5,28.7 5.2,30.1 3.5,30.1 Z" fill="#2962FF"></path>
                        </g>
                        <g transform="translate(20.000000, 0.000000)">
                            <path d="M3.1,3.8 L3.1,27.1" fill="#FFFFFF"></path>
                            <path d="M3.1,30.1 C1.4,30.1 0.1,28.8 0.1,27.1 L0.1,3.8 C0.1,2.1 1.4,0.8 3.1,0.8 C4.8,0.8 6.1,2.1 6.1,3.8 L6.1,27.1 C6.1,28.7 4.8,30.1 3.1,30.1 Z" fill="#2962FF"></path>
                        </g>
                        <g transform="translate(29.000000, 0.000000)">
                            <path d="M3.7,3.8 L3.7,27.1" fill="#FFFFFF"></path>
                            <path d="M3.7,30.1 C2,30.1 0.7,28.8 0.7,27.1 L0.7,3.8 C0.7,2.1 2,0.8 3.7,0.8 C5.4,0.8 6.7,2.1 6.7,3.8 L6.7,27.1 C6.7,28.7 5.4,30.1 3.7,30.1 Z" fill="#2962FF"></path>
                        </g>
                        <g transform="translate(39.000000, 0.000000)">
                            <path d="M3.3,3.8 L3.3,27.1" fill="#FFFFFF"></path>
                            <path d="M3.3,30.1 C1.6,30.1 0.3,28.8 0.3,27.1 L0.3,3.8 C0.3,2.1 1.6,0.8 3.3,0.8 C5,0.8 6.3,2.1 6.3,3.8 L6.3,27.1 C6.3,28.7 4.9,30.1 3.3,30.1 Z" fill="#2962FF"></path>
                        </g>
                    </g>
                </g>
            </g>
            <g id="foreground_1_" transform="translate(0.399990, 0.500000)" fill="#2962FF">
                <path d="M609.3,176.5 L437.6,77.4 L437.6,77.4 C437.4,77.2 437.1,77.2 436.9,77.2 L436.9,77.2 L436.9,77.2 L436.7,77.2 L436.5,77.2 C436.3,77.2 436,77.2 435.8,77.2 C435.8,77.2 435.8,77.2 435.6,77.2 L435.4,77.2 C435.2,77.2 434.7,77.2 434.5,77.2 L434.5,77.2 L434.5,77.2 L434.5,77.2 C434.3,77.2 434,77.4 433.8,77.4 L433.8,77.4 L264.8,174.9 C262.8,176 262.1,178.5 263.2,180.6 C264.3,182.6 267,183.3 268.9,182.2 L419.1,95.6 L355.3,177 C353.9,178.8 354.2,181.5 356,182.9 C357.8,184.3 360.5,184 361.9,182.2 L431.6,93.3 L431.6,180.2 C431.6,182.5 433.4,184.5 435.9,184.5 C438.4,184.5 440.2,182.7 440.2,180.2 L440.2,93.3 L509.9,182.2 C510.8,183.3 511.9,183.8 513.3,183.8 C514.2,183.8 515.1,183.6 515.8,182.9 C517.6,181.5 517.8,178.8 516.5,177 L452.7,95.6 L605.6,183.8 C606.3,184.3 607,184.3 607.6,184.3 C609,184.3 610.5,183.6 611.2,182.3 C612,180.3 611.4,177.6 609.3,176.5 L609.3,176.5 Z" id="top-stripes_1_"></path>
                <path d="M608.2,816.4 C607.1,814.4 604.4,813.7 602.5,814.8 L452.5,901.4 L516.3,820 C517.7,818.2 517.4,815.5 515.6,814.1 C513.8,812.7 511.1,813 509.7,814.8 L440,903.7 L440,816.8 C440,814.5 438.2,812.5 435.7,812.5 C433.2,812.5 431.4,814.3 431.4,816.8 L431.4,903.7 L361.7,814.8 C360.3,813 357.6,812.8 355.8,814.1 C354,815.5 353.8,818.2 355.1,820 L418.9,901.4 L266,813.2 C264,812.1 261.5,812.7 260.3,814.8 C259.2,816.8 259.8,819.3 261.9,820.5 L433.6,919.6 C433.6,919.6 433.6,919.6 433.8,919.6 C434,919.6 434,919.8 434.3,919.8 C434.3,919.8 434.3,919.8 434.5,919.8 C434.5,919.8 434.5,919.8 434.7,919.8 L434.9,919.8 C435.1,919.8 435.6,920 435.8,920 L435.8,920 L435.8,920 L435.8,920 L435.8,920 C436.3,920 436.5,920 436.7,919.8 L436.9,919.8 L437.1,919.8 C437.3,919.8 437.3,919.6 437.6,919.6 C437.6,919.6 437.6,919.6 437.8,919.6 L606.8,822.1 C608.6,821.1 609.3,818.4 608.2,816.4 Z" id="bottom-stripes_1_"></path>
                <circle id="bottom-dot-right_1_" cx="619.5" cy="808.5" r="5.2"></circle>
                <circle id="bottom-dot-left_1_" cx="249.7" cy="808.5" r="5.2"></circle>
                <g id="Group" transform="translate(325.000000, 776.000000)">
                    <polygon id="Shape" points="19 3.9 7.7 11.8 10.8 16.3 21.2 9 23.8 12.8 13.4 20.1 17.3 25.6 29.1 17.3 31.7 21.1 15.5 32.4 0.6 11.1 16.3 0.1"></polygon>
                </g>
                <g id="Group" transform="translate(423.000000, 758.000000)">
                    <path d="M5.7,19.3 C5.7,20.7 6.5,23.5 11.2,23.5 C13.8,23.5 16.6,22.9 16.6,20.1 C16.6,18.1 14.6,17.5 11.9,16.9 L9.1,16.2 C4.9,15.2 0.8,14.3 0.8,8.6 C0.8,5.7 2.4,0.6 10.8,0.6 C18.8,0.6 20.9,5.8 20.9,9 L15.7,9 C15.6,7.8 15.1,5.1 10.4,5.1 C8.3,5.1 5.9,5.9 5.9,8.2 C5.9,10.2 7.6,10.7 8.7,10.9 L15,12.5 C18.5,13.4 21.8,14.8 21.8,19.5 C21.8,27.3 13.8,28 11.6,28 C2.1,28 0.5,22.5 0.5,19.3 L5.7,19.3 Z" id="Shape"></path>
                </g>
                <g id="Group" transform="translate(512.000000, 782.000000)">
                    <path d="M5.6,19.5 L0.9,16.2 L23.4,0.2 L28.5,3.8 L21.1,30.3 L16.3,26.9 L18,21.6 L10.1,16.1 L5.6,19.5 Z M14,13.3 L19.4,17.1 L22.7,6.8 L22.6,6.8 L14,13.3 Z" id="Shape"></path>
                </g>
                <path d="M863.1,244.8 L443.3,2.5 C438.5,-0.2 432.7,-0.2 427.9,2.5 L8.1,244.8 C3.3,247.5 0.4,252.7 0.4,258.1 L0.4,742.8 C0.4,748.2 3.3,753.4 8.1,756.1 L427.9,998.4 C430.4,999.8 432.9,1000.4 435.6,1000.4 C438.3,1000.4 441,999.7 443.3,998.4 L863.1,756.1 C867.9,753.4 870.8,748.2 870.8,742.8 L870.8,258.1 C870.8,252.7 867.9,247.5 863.1,244.8 Z M840.3,734 L435.6,967.4 L31.4,734 L30.7,267 L435.6,33.6 L840,267 L840.3,734 Z" id="rest-of-the-fucking-owl_1_"></path>
                <g id="nodeschool-banner_1_" transform="translate(281.000000, 252.000000)">
                    <path d="M3.3,31.5 C5.1,31.5 6.5,30.1 6.5,28.3 L6.5,12.2 L19.6,29.4 C20.5,30.5 21.4,31.4 23,31.4 L23.2,31.4 C25,31.4 26.6,30 26.6,28 L26.6,4.2 C26.6,2.4 25.2,1 23.4,1 C21.6,1 20.2,2.4 20.2,4.2 L20.2,19.6 L7.6,3 C6.7,1.9 5.8,1 4.2,1 L3.5,1 C1.7,1 0.1,2.4 0.1,4.4 L0.1,28.2 C0.1,30.1 1.5,31.5 3.3,31.5 L3.3,31.5 Z" id="Shape"></path>
                    <path d="M48.3,31.7 C57.6,31.7 64.4,24.7 64.4,16.3 L64.4,16.3 C64.4,7.7 57.8,0.9 48.6,0.9 C39.4,0.9 32.5,7.9 32.5,16.3 L32.5,16.3 C32.5,24.9 39,31.7 48.3,31.7 Z M39.5,16.3 C39.5,11.1 43.1,7 48.5,7 C53.7,7 57.5,11.3 57.5,16.5 L57.5,16.5 C57.5,21.7 53.9,25.8 48.5,25.8 C43.1,25.6 39.5,21.5 39.5,16.3 L39.5,16.3 Z" id="Shape"></path>
                    <path d="M73.4,31.2 L81.8,31.2 C91.3,31.2 97.6,24.6 97.6,16.3 L97.6,16.3 C97.6,7.9 91,1.4 81.8,1.4 L73.4,1.4 C71.6,1.4 70,2.8 70,4.8 L70,27.9 C70.2,29.9 71.6,31.2 73.4,31.2 Z M76.8,7.3 L81.8,7.3 C87.2,7.3 90.8,10.9 90.8,16.3 L90.8,16.3 C90.8,21.5 87.2,25.3 81.8,25.3 L76.8,25.3 L76.8,7.3 L76.8,7.3 Z" id="Shape"></path>
                    <path d="M106.9,31.2 L123.6,31.2 C125.2,31.2 126.5,29.8 126.5,28.3 C126.5,26.8 125.1,25.4 123.6,25.4 L110,25.4 L110,19 L121.3,19 C122.9,19 124.2,17.6 124.2,16.1 C124.2,14.6 122.8,13.2 121.3,13.2 L110,13.2 L110,7 L123.3,7 C124.9,7 126.2,5.6 126.2,4.1 C126.2,2.5 124.8,1.2 123.3,1.2 L106.8,1.2 C105,1.2 103.4,2.6 103.4,4.6 L103.4,27.9 C103.7,29.9 105.1,31.2 106.9,31.2 L106.9,31.2 Z" id="Shape"></path>
                    <path d="M131.8,28.1 C135.2,30.6 139,31.7 143.1,31.7 C149.7,31.7 154.2,28.3 154.2,22.4 L154.2,22.4 C154.2,17.2 150.8,14.9 144.7,13.4 C139.5,12 138.1,11.4 138.1,9.6 L138.1,9.6 C138.1,8.2 139.5,6.9 141.9,6.9 C143.9,6.9 146,7.6 148.2,8.9 C148.7,9.1 149.3,9.4 149.8,9.4 C151.6,9.4 153,8 153,6.5 C153,5.1 152.3,4.2 151.6,3.8 C148.9,2 145.7,1.1 142.1,1.1 C136,1.1 131.7,4.7 131.7,10.1 L131.7,10.1 C131.7,16 135.5,17.8 141.7,19.1 C146.7,20.5 147.8,21.1 147.8,22.9 L147.8,22.9 C147.8,24.7 146.2,25.6 143.5,25.6 C140.6,25.6 138.1,24.5 135.8,22.9 C135.3,22.7 134.7,22.2 134,22.2 C132.2,22.2 130.8,23.6 130.8,25.1 C130.4,26.7 131.1,27.6 131.8,28.1 L131.8,28.1 Z" id="Shape"></path>
                    <path d="M173.6,31.7 C178.4,31.7 181.5,30.3 184.2,27.9 C184.9,27.4 185.3,26.5 185.3,25.6 C185.3,24 183.9,22.7 182.1,22.7 C181.4,22.7 180.7,22.9 180.1,23.4 C178.3,25 176.5,25.7 173.5,25.7 C168.3,25.7 164.9,21.4 164.9,16.2 L164.9,16.2 C164.9,11 168.5,6.9 173.5,6.9 C175.8,6.9 177.8,7.6 179.6,8.9 C180.1,9.1 180.7,9.6 181.6,9.6 C183.4,9.6 184.8,8.2 184.8,6.4 C184.8,5.3 184.1,4.4 183.4,3.7 C180.9,1.9 178,0.8 173.4,0.8 C164.1,0.8 157.8,7.8 157.8,16.2 L157.8,16.2 C158.4,24.9 165,31.7 173.6,31.7 L173.6,31.7 Z" id="Shape"></path>
                    <path d="M194.6,31.5 C196.4,31.5 198,30.1 198,28.1 L198,19.1 L210.2,19.1 L210.2,28.1 C210.2,29.9 211.6,31.5 213.6,31.5 C215.4,31.5 217,30.1 217,28.1 L217,4.3 C217,2.5 215.6,0.9 213.6,0.9 C211.8,0.9 210.2,2.3 210.2,4.3 L210.2,13.1 L198,13.1 L198,4.3 C198,2.5 196.6,0.9 194.6,0.9 C192.8,0.9 191.2,2.3 191.2,4.3 L191.2,28.1 C191.2,30.1 192.6,31.5 194.6,31.5 Z" id="Shape"></path>
                    <path d="M238.3,31.7 C247.6,31.7 254.1,24.7 254.1,16.3 L254.1,16.3 C254.1,7.7 247.5,0.9 238.3,0.9 C229,0.9 222.2,7.9 222.2,16.3 L222.2,16.3 C222.5,24.9 229,31.7 238.3,31.7 Z M229.2,16.3 C229.2,11.1 232.8,7 238.2,7 C243.4,7 247.2,11.3 247.2,16.5 L247.2,16.5 C247.2,21.7 243.6,25.8 238.2,25.8 C233.1,25.6 229.2,21.5 229.2,16.3 L229.2,16.3 Z" id="Shape"></path>
                    <path d="M274.7,31.7 C284,31.7 290.8,24.7 290.8,16.3 L290.8,16.3 C290.8,7.7 284.2,0.9 275,0.9 C265.7,0.9 258.9,7.9 258.9,16.3 L258.9,16.3 C258.9,24.9 265.4,31.7 274.7,31.7 Z M265.7,16.3 C265.7,11.1 269.3,7 274.7,7 C279.9,7 283.7,11.3 283.7,16.5 L283.7,16.5 C283.7,21.7 280.1,25.8 274.7,25.8 C269.5,25.6 265.7,21.5 265.7,16.3 L265.7,16.3 Z" id="Shape"></path>
                    <path d="M299.8,31.2 L315.2,31.2 C316.8,31.2 318.1,29.8 318.1,28.3 C318.1,26.8 316.7,25.4 315.2,25.4 L303,25.4 L303,4.6 C303,2.8 301.6,1.2 299.6,1.2 C297.8,1.2 296.2,2.6 296.2,4.6 L296.2,27.9 C296.4,29.9 298,31.2 299.8,31.2 L299.8,31.2 Z" id="Shape"></path>
                </g>
            </g>
            <path d="M508.2,710.7 L508.2,695.9 L500.2,695.9 L499.1,695.3 C490.4,690.8 488.5,682.8 488.3,681.8 C488.3,681.8 473.9,517.2 468.7,462.7 C468.5,460.9 467.5,458.8 464.9,458.8 C463.3,458.8 459.4,458.8 459.4,458.8 L459.4,445.5 L456.1,445.5 L456.1,442.5 C464.8,436.3 470,426.3 470,415.5 C470,404.2 464.4,394.2 455.8,388.2 C455.8,385.8 455.6,383.3 454.4,381.8 C453.4,380.6 450.8,378.6 448.9,377.2 C448.8,373.3 448.4,365.1 448,359.8 C448.5,359.6 449.2,359.1 450.2,358.2 C452.4,359.6 453.4,359.6 453.8,359.6 C455.3,359.6 456.7,358.7 457,357.2 C457.4,356.1 457.5,354.5 455.1,352.1 C455.3,351.4 455.3,350.6 455.1,349.9 C454.6,348.5 453.5,347.9 453,347.7 C452.8,347.6 452.8,347.6 452.6,347.5 C452.1,346.5 451,342.3 450.4,339.7 C449.9,337.6 449.4,335.6 449,334.3 C448.1,331.4 446.3,330.3 444.9,329.7 C444.8,329.1 444.7,328.5 444.4,328 C444.4,327.6 444.4,326.8 444.4,326.1 C444.5,325.5 444.9,322.5 442.8,320 C441.8,318.9 439.9,317.5 436.8,317.5 C434.1,317.5 432.6,318.7 431.7,319.9 C429.7,322.5 430.1,326.1 430.7,328.7 L430.7,328.8 C430.5,329 430.2,329.3 430.1,329.5 C429.9,329.6 429.6,329.7 429.4,330 C429.4,329.5 429.5,328.9 429.6,328.1 C429.7,327.4 429.8,326 428.9,324.9 L428.7,324.7 C428.6,324.3 428.6,324 428.5,323.7 C428.1,322 426.6,320.7 425,320.7 C423,320.7 421.3,322.3 420.6,324.6 C420.2,326.2 420.6,328.2 421,329.3 C419.9,342.8 421.4,344.2 422.2,345 C422.8,345.6 424.1,346.4 425.9,346.4 C426.4,346.4 426.9,346.4 427.4,346.3 C427.4,352.2 426.7,365.2 425.8,377.6 C420.6,381.2 420.1,381.8 419.8,382.1 C419.3,382.6 418.6,383.6 418.6,387.8 C409.4,393.8 403.3,404.1 403.3,415.8 C403.3,426.9 408.7,437 417.7,443.2 L417.7,445.8 L413.2,445.8 L413.2,458.9 C413.2,458.9 409.6,458.9 408.1,458.9 C405.5,458.9 404.1,461.2 404,462.5 C398.5,519.8 384.4,682.1 384.4,682.1 C384.2,683.2 382.3,691.1 373.6,695.6 L372.5,696.2 L363.3,696.2 L363.3,710.9 L348.2,710.9 L348.2,734 L523.6,734 L523.6,710.7 L508.2,710.7 Z" id="Shape" fill="#FFFFFF"></path>
            <path d="M508.2,695.9 L500.2,695.9 L499.1,695.3 C490.4,690.8 488.5,682.8 488.3,681.8 C488.3,681.8 473.9,517.2 468.7,462.7 C468.5,460.9 467.5,458.8 464.9,458.8 C463.3,458.8 459.4,458.8 459.4,458.8 L459.4,445.5 L456.1,445.5 L456.1,442.5 C464.8,436.3 470,426.3 470,415.5 C470,404.2 464.4,394.2 455.8,388.2 C455.8,385.8 455.6,383.3 454.4,381.8 C453.4,380.6 450.8,378.6 448.9,377.2 C448.8,373.3 448.4,365.1 448,359.8 C448.5,359.6 449.2,359.1 450.2,358.2 C452.4,359.6 453.4,359.6 453.8,359.6 L453.8,359.6 C455.3,359.6 456.7,358.7 457,357.2 C457.4,356.1 457.5,354.5 455.1,352.1 C455.3,351.4 455.3,350.6 455.1,349.9 C454.6,348.5 453.5,347.9 453,347.7 C452.8,347.6 452.8,347.6 452.6,347.5 C452.1,346.5 451,342.3 450.4,339.7 C449.9,337.6 449.4,335.6 449,334.3 C448.1,331.4 446.3,330.3 444.9,329.7 C444.8,329.1 444.7,328.5 444.4,328 C444.4,327.6 444.4,326.8 444.4,326.1 C444.5,325.5 444.9,322.5 442.8,320 C441.8,318.9 439.9,317.5 436.8,317.5 C434.1,317.5 432.6,318.7 431.7,319.9 C429.7,322.5 430.1,326.1 430.7,328.7 L430.7,328.8 C430.5,329 430.2,329.3 430.1,329.5 C429.9,329.6 429.6,329.7 429.4,330 C429.4,329.5 429.5,328.9 429.6,328.1 C429.7,327.4 429.8,326 428.9,324.9 L428.7,324.7 C428.6,324.3 428.6,324 428.5,323.7 C428.1,322 426.6,320.7 425,320.7 C423,320.7 421.3,322.3 420.6,324.6 C420.2,326.2 420.6,328.2 421,329.3 C419.9,342.8 421.4,344.2 422.2,345 C422.8,345.6 424.1,346.4 425.9,346.4 C426.4,346.4 426.9,346.4 427.4,346.3 C427.4,352.2 426.7,365.2 425.8,377.6 C420.6,381.2 420.1,381.8 419.8,382.1 C419.3,382.6 418.6,383.6 418.6,387.8 C409.4,393.8 403.3,404.1 403.3,415.8 C403.3,426.9 408.7,437 417.7,443.2 L417.7,445.8 L413.2,445.8 L413.2,458.9 C413.2,458.9 409.6,458.9 408.1,458.9 C405.5,458.9 404.1,461.2 404,462.5 C398.5,519.8 384.4,682.1 384.4,682.1 C384.2,683.2 382.3,691.1 373.6,695.6 L372.5,696.2 L363.3,696.2 L363.3,710.9 L348.2,710.9 L348.2,734 L523.6,734 L523.6,710.7 L508.2,710.7 L508.2,695.9 Z M488.4,695 L473.3,695 C471.4,694 464.8,689.5 464.8,676.8 C464.8,665 460.7,525.6 459,464.5 L462.6,464.5 L482,682.9 C482.1,683.3 483.2,689.4 488.4,695 Z M462.7,408.6 C462.6,408.5 462.5,408.2 462.3,408.1 L461.1,407 C460,406 459.6,405.5 458.2,405.1 L457.8,405 C457.7,405 457.6,405 457.6,404.9 C457.4,404.7 457,404.4 456.4,404.2 C456.3,404.1 456,404.1 455.9,404 C455.9,403.9 455.8,403.8 455.8,403.8 C455.4,403.1 454.9,402.1 454.2,401.3 C454.1,400.9 453.8,400.6 453.5,400.2 C453.6,399.8 453.6,399.3 453.6,399.2 C453.7,398.1 453.4,396.5 451.1,395.3 C451,395.3 450.9,395.2 451,395.3 C449.6,394.2 447.5,394.4 446.3,394.8 C446.2,394.8 445.9,394.9 445.8,394.9 C445.7,394.8 445.4,394.7 445.2,394.5 C445.9,394.1 446.3,393.6 446.6,393.1 C446.7,393 446.8,392.7 446.8,392.4 L447,392.4 L447.9,391.4 C448,391.3 448,391.3 448.1,391.2 C449.2,391.7 450.3,392.3 451.3,392.9 L454.4,395.3 C458.2,398.7 461.2,403.3 462.7,408.6 Z M426.9,340.1 C426.9,339.4 426.8,338.4 426.9,337.2 C426.9,337.1 427.9,336.9 428.6,336.5 C431.1,335.2 432.5,333.2 434.6,332.9 C435.9,332.7 438.2,332.8 439.5,332.7 C440.9,332.6 440.9,333.7 442.3,334 C443.3,334.3 443.5,336.6 443.7,337.4 C444.3,339.8 445,342.2 445.5,344.6 C445.8,345.9 446.1,347.2 446.5,348.5 C446.9,349.7 447.4,351.1 448.3,352 L447.9,352.4 C447.8,352.5 447.7,352.6 447.4,352.9 C447.5,352.8 445.9,352 445.8,351.9 C444.9,351.6 443.6,351.6 442.8,352.3 C440.9,354 441.5,356.4 441.6,358.7 C441.9,363.8 442.1,368.9 442.3,374 C442.4,376.4 442.6,378.7 442.8,381.1 L444,382 C445,382.7 445.9,383.4 446.8,384.1 C444.6,383.2 442.9,383 440.6,382.8 C437.7,382.5 434.9,382.6 432.5,382.9 C431.8,383 429.2,383.5 428.2,383.7 C428.9,383.2 429.7,382.6 430.4,382.1 L431.6,381.2 L431.7,379.7 C432.1,374.6 432.5,369.5 432.8,364.4 C433.1,359.4 433.4,354.4 433.5,349.4 C433.5,347.6 433.5,345.8 433.4,344 C433.3,342.7 433,341.4 432.3,340.4 C431.5,339.4 430.3,339.3 429.2,339.6 C428.6,339.8 427.8,339.9 426.9,340.1 Z M409.3,415.8 C409.3,408.3 412.4,401.5 417.3,396.6 C417.4,397.1 417.8,397.7 418.3,398.3 C419.4,399.5 421.7,400.9 423.7,400.7 C423.7,400.7 423.7,400.8 423.8,400.8 C424.2,401.3 424.7,401.8 424.9,402 C425.4,402.5 426.8,403.5 428.4,403.5 C428.8,403.5 429.3,403.4 429.6,403.3 C430.1,403.5 430.6,403.7 431.1,403.7 C432.3,403.7 433.6,403.2 434.5,402.8 C434.6,402.8 434.6,402.7 434.7,402.7 C434.9,402.9 435.3,403.1 435.6,403.3 C435.9,403.5 436.1,403.7 436.3,403.8 C436.2,403.9 436.1,404.2 435.9,404.3 C435.2,405.3 435,406.5 435.5,407.8 C435.7,408.5 436.2,409 436.6,409.5 C436.7,409.6 436.8,409.7 436.8,409.9 C436.9,411.4 437.5,412.4 438.4,413.1 C438.5,414.1 438.9,415 439.6,415.8 L440,416.3 C439.3,416.9 438.1,418.2 438.4,420.5 C438.5,421.4 438.4,422.2 438.4,422.9 C437.9,423.3 437.5,423.9 437.2,424.5 C436.6,425.9 436.6,427.4 437.2,428.7 C437.6,429.6 438.1,430.3 438.4,430.8 C438.5,431.8 438.9,432.8 439.4,433.7 C440.1,434.7 441.3,435.2 442.4,435.2 L443.4,435.1 L444,434.9 C445,434.5 448,433.3 448,430.3 C448,430.3 448,430.2 448.1,430.2 L448.2,430.2 C449.3,429.8 451.4,429.1 452.1,426.8 C453.2,426.6 454.5,426.1 455.3,424.6 C456.3,424.7 458,424.5 459.7,423.1 C460.7,422.4 462.1,421.1 463.1,420 C463.1,419.9 463.2,419.9 463.2,419.8 C462.2,427 458.3,433.6 452.2,438 C451.8,437.9 451.5,437.8 451,437.6 C450.9,437.6 450.6,437.5 450.5,437.5 C450.3,437.5 450.1,437.4 449.9,437.4 C449.7,437.3 449.3,437.3 448.9,437.2 L449,437.2 C448.4,437.1 447.8,437 447.1,436.7 C446.9,436.7 446.6,436.6 446.4,436.6 C446.2,436.6 445.8,436.5 445.5,436.5 C445.1,436.4 444.6,436.4 444.3,436.3 C444.2,436.3 443.9,436.3 443.8,436.2 C443.2,436.1 442.6,436.1 441.8,436 C441.7,436 441.4,436 441.3,436 C440.8,436 440.2,435.9 439.6,435.9 C439.4,435.9 439.2,435.9 439,435.9 C438.3,435.9 437.5,435.9 436.6,435.9 C435.7,435.9 435,435.9 434.2,436 C434,436 433.8,436 433.6,436 C433,436 432.4,436.1 431.7,436.1 C431.6,436.1 431.5,436.1 431.3,436.1 C430.6,436.2 429.9,436.2 429.2,436.3 C429.1,436.3 429,436.3 428.8,436.4 C428.3,436.5 427.7,436.6 427.2,436.8 C427.1,436.8 427,436.8 426.8,436.9 C426.2,437 425.7,437.1 425.1,437.3 C425.1,437.3 425.1,437.3 425,437.3 C424.5,437.4 424,437.5 423.5,437.7 C423.4,437.7 423.4,437.7 423.3,437.8 C422.3,438 421.6,438.4 420.9,438.7 L420.9,438.7 C413.6,433 409.3,424.8 409.3,415.8 Z M423.7,443.6 C425.4,442.9 428.7,441.9 433,441.5 C433.1,441.5 433.4,441.5 433.5,441.5 C434.4,441.4 435.4,441.4 436.4,441.4 C437.3,441.4 438.1,441.4 438.9,441.5 C439.1,441.5 439.4,441.5 439.6,441.5 C440.1,441.5 440.6,441.6 441.1,441.6 C441.3,441.6 441.7,441.7 442,441.7 C442.5,441.7 442.9,441.8 443.4,441.9 C443.6,441.9 443.9,442 444.1,442 C444.6,442.1 445,442.1 445.5,442.2 C445.7,442.2 446,442.3 446.2,442.3 C446.7,442.4 447.1,442.5 447.4,442.5 C447.6,442.6 447.9,442.6 448,442.7 C448.2,442.8 448.5,442.8 448.6,442.9 C448.8,443 449,443 449.2,443.1 C449.3,443.1 449.3,443.1 449.4,443.2 L449.4,445.6 L423.4,445.6 L423.4,443.2 L423.7,443.2 L423.7,443.6 Z M390.5,682.7 L393.4,647.8 L409.8,464.6 L413.2,464.6 C411.5,525.6 407.4,664.9 407.4,676.9 C407.4,689.5 400.8,694.1 398.9,695.1 L383.8,695.1 C389.3,689.4 390.4,683.2 390.5,682.7 Z M369.4,702.2 L502.3,702.2 L502.3,710.7 L369.4,710.7 L369.4,702.2 Z M517.3,716.9 L517.3,727.7 L354.4,727.7 L354.4,716.9 L363.2,716.9 L508.5,716.9 L517.3,716.9 Z" id="Shape" fill="#2962FF"></path>
        </g>
    </g>
</svg>